<svg width="1022" height="357" viewBox="0 0 1022 357" fill="none" xmlns="http://www.w3.org/2000/svg">
<path d="M1 101.082C11.1667 96.2486 38.5 88.8819 66.5 98.0819C94.5 107.282 104.833 136.249 106.5 149.582C108 156.915 110.8 175.982 110 193.582C109.2 211.182 123.667 248.582 131 265.082C141.167 290.248 176.4 342.082 236 348.082C295.6 354.082 343.5 332.915 360 321.582C388 305.582 439 258.86 435.5 184.582C430.859 86.0819 479.5 29.0819 503 18.0819C526.667 4.24852 583 -18.4171 674.5 33.0825C698.833 31.4158 756.9 39.6825 794.5 86.0825C832.1 132.483 837.5 175.083 837.5 195.083V254.083C838 275.249 849.1 321.783 889.5 338.583C912.3 352.183 950.667 355.583 967 355.583C980.5 355.249 1010.2 353.783 1021 350.583" stroke="#DA0A2D" stroke-width="2" stroke-dasharray="4 4"/>
</svg>
