<svg width="382" height="343" viewBox="0 0 382 343" fill="none" xmlns="http://www.w3.org/2000/svg">
<path d="M98.5673 342.228C81.234 342.728 39.4673 326.828 11.0673 259.228C-17.3327 191.628 15.5673 121.395 35.5673 94.7281C50.9007 70.8948 95.4674 19.6281 151.067 5.22811C206.667 -9.17189 265.901 9.56144 288.567 20.7281C316.067 32.7281 373.067 75.328 381.067 149.728C389.067 224.128 337.067 234.395 310.067 230.228C287.567 228.895 230.467 237.228 182.067 281.228C138.936 320.438 127.014 331.324 125.991 332.286C126.017 332.267 126.042 332.247 126.067 332.228C125.904 332.373 125.866 332.404 125.991 332.286C121.6 335.638 110.1 342.228 98.5673 342.228Z" fill="white"/>
</svg>
